<?xml version="1.0" standalone="no"?>
<!DOCTYPE svg PUBLIC "-//W3C//DTD SVG 20010904//EN"
 "http://www.w3.org/TR/2001/REC-SVG-20010904/DTD/svg10.dtd">
<svg version="1.0" xmlns="http://www.w3.org/2000/svg"
 width="946.000000pt" height="946.000000pt" viewBox="0 0 946.000000 946.000000"
 preserveAspectRatio="xMidYMid meet">
<metadata>
Created by potrace 1.11, written by Peter Selinger 2001-2013
</metadata>
<g transform="translate(0.000000,946.000000) scale(0.100000,-0.100000)"
fill="#000000" stroke="none">
<path d="M3965 8559 c-127 -16 -153 -22 -168 -40 -25 -31 -32 -67 -20 -111 9
-33 7 -42 -8 -62 -25 -32 -24 -43 12 -204 28 -125 31 -148 26 -265 -4 -114 -3
-130 14 -151 16 -20 18 -35 13 -78 -4 -39 0 -70 14 -117 12 -35 18 -69 16 -76
-9 -23 -102 -95 -156 -120 -35 -17 -71 -25 -106 -25 -29 0 -185 29 -345 64
-161 36 -386 86 -502 111 -115 25 -262 60 -325 76 -114 31 -116 31 -234 19
-65 -6 -128 -15 -140 -20 -13 -4 -100 -87 -196 -184 -106 -107 -185 -179 -204
-186 -24 -8 -63 -55 -180 -216 -145 -200 -148 -206 -142 -245 5 -32 1 -48 -20
-84 -14 -25 -23 -52 -20 -62 3 -10 34 -36 69 -57 34 -22 141 -117 237 -211 96
-93 242 -234 323 -313 96 -93 147 -149 145 -160 -5 -26 -115 -100 -546 -368
-588 -366 -579 -360 -661 -455 -71 -84 -91 -129 -91 -207 0 -15 -8 -40 -17
-57 -15 -26 -18 -67 -21 -307 -3 -225 -6 -279 -18 -289 -19 -16 -18 -42 12
-306 32 -291 31 -287 75 -291 19 -2 57 1 85 7 36 9 76 9 144 1 67 -8 146 -7
289 2 108 6 251 11 317 11 153 -1 209 -22 273 -103 49 -62 49 -70 15 -227 -14
-65 -45 -215 -70 -333 -25 -118 -65 -314 -91 -435 l-46 -220 12 -165 c6 -91
15 -180 20 -197 17 -57 239 -319 317 -373 12 -8 42 -44 67 -80 25 -36 58 -77
74 -91 69 -65 315 -249 332 -249 12 0 31 19 51 49 17 27 56 71 86 96 30 26 73
75 96 109 23 33 74 95 114 136 39 41 79 90 88 108 19 37 177 160 246 191 54
25 106 26 185 5 88 -22 138 -56 259 -173 95 -92 126 -132 241 -306 73 -110
167 -256 210 -325 131 -210 141 -224 227 -292 46 -36 92 -70 103 -76 56 -29
252 -56 415 -58 91 -1 185 -5 208 -9 64 -11 432 34 440 54 3 8 0 41 -7 74 -11
53 -11 61 3 69 21 12 20 39 -5 143 -14 59 -23 145 -28 273 -6 121 -15 213 -27
260 l-18 73 23 45 c28 52 83 105 143 135 87 45 126 49 449 49 l306 0 294 -66
294 -66 134 6 c76 4 147 12 166 20 77 33 231 156 319 257 50 57 101 105 117
111 16 5 53 41 86 81 32 40 90 110 129 157 39 47 78 97 88 112 17 26 16 27
-13 61 l-30 34 24 33 c30 41 31 59 6 108 -22 44 -47 63 -178 138 -109 63 -200
133 -314 240 -63 60 -86 76 -135 89 -58 17 -97 43 -115 77 -7 12 -1 35 21 80
25 54 63 97 257 290 l228 226 280 178 c154 97 300 193 324 212 47 38 144 151
167 194 18 34 30 185 44 548 12 280 11 288 -14 485 -27 219 -38 261 -67 270
-27 9 -114 -10 -254 -55 -113 -37 -132 -39 -300 -48 -175 -8 -182 -10 -244
-41 -58 -30 -70 -32 -118 -26 -84 10 -169 59 -222 128 -73 95 -73 94 59 727
l113 535 1 185 c1 179 -11 283 -37 335 -18 34 -88 104 -234 232 -103 89 -143
131 -143 146 0 17 -39 55 -149 145 -82 67 -163 130 -179 139 -48 28 -70 10
-133 -107 -88 -166 -141 -240 -237 -336 -62 -62 -100 -110 -117 -145 -14 -30
-25 -59 -25 -65 0 -24 -73 -93 -132 -124 -53 -29 -76 -35 -146 -38 -76 -4 -87
-2 -145 26 -34 17 -81 50 -104 74 -23 24 -117 160 -210 303 -280 431 -364 560
-448 688 -79 121 -120 162 -239 245 l-40 27 -255 2 c-141 1 -290 4 -331 7 -44
3 -137 -3 -225 -15z"/>
</g>
</svg>
